<mxfile host="Electron" agent="Mozilla/5.0 (X11; Linux x86_64) AppleWebKit/537.36 (KHTML, like Gecko) draw.io/28.2.8 Chrome/140.0.7339.240 Electron/38.4.0 Safari/537.36" version="28.2.8">
  <diagram name="Page-1" id="IIIXukhTYiGcGObIZNtu">
    <mxGraphModel dx="2308" dy="800" grid="1" gridSize="10" guides="1" tooltips="1" connect="1" arrows="1" fold="1" page="1" pageScale="1" pageWidth="827" pageHeight="1169" math="0" shadow="0">
      <root>
        <mxCell id="0" />
        <mxCell id="1" parent="0" />
        <mxCell id="nirZJut8OifijuhOviz1-1" value="" style="group" vertex="1" connectable="0" parent="1">
          <mxGeometry x="-600" y="200" width="1085" height="741" as="geometry" />
        </mxCell>
        <mxCell id="S3mO7Do9f3GU9gXsoDuW-5" value="&lt;font style=&quot;font-size: 15px;&quot;&gt;&lt;b&gt;Plateforme de gestion des coopératives agricoles&lt;/b&gt;&lt;/font&gt;" style="shape=umlFrame;whiteSpace=wrap;html=1;pointerEvents=0;recursiveResize=0;container=1;collapsible=0;width=220;fillColor=light-dark(#7EA6E0,#666666);gradientColor=default;swimlaneFillColor=default;height=50;fontColor=light-dark(#000000,#090808);" parent="nirZJut8OifijuhOviz1-1" vertex="1">
          <mxGeometry x="235" width="750" height="741" as="geometry" />
        </mxCell>
        <mxCell id="S3mO7Do9f3GU9gXsoDuW-4" value="Recevoir des payements" style="ellipse;whiteSpace=wrap;html=1;fontSize=15;" parent="S3mO7Do9f3GU9gXsoDuW-5" vertex="1">
          <mxGeometry x="30" y="420" width="230" height="60" as="geometry" />
        </mxCell>
        <mxCell id="S3mO7Do9f3GU9gXsoDuW-3" value="Vendre des produits en ligne" style="ellipse;whiteSpace=wrap;html=1;fontSize=15;" parent="S3mO7Do9f3GU9gXsoDuW-5" vertex="1">
          <mxGeometry x="170" y="230" width="230" height="60" as="geometry" />
        </mxCell>
        <mxCell id="S3mO7Do9f3GU9gXsoDuW-2" value="Suivre les productions" style="ellipse;whiteSpace=wrap;html=1;fontSize=15;" parent="S3mO7Do9f3GU9gXsoDuW-5" vertex="1">
          <mxGeometry x="59" y="160" width="230" height="60" as="geometry" />
        </mxCell>
        <mxCell id="S3mO7Do9f3GU9gXsoDuW-1" value="Gérer les membres de la coopérative&amp;nbsp;" style="ellipse;whiteSpace=wrap;html=1;fontSize=15;" parent="S3mO7Do9f3GU9gXsoDuW-5" vertex="1">
          <mxGeometry x="40" y="540" width="230" height="60" as="geometry" />
        </mxCell>
        <mxCell id="S3mO7Do9f3GU9gXsoDuW-9" value="Suivre une formation sur les meilleurs pratiques agricoles" style="ellipse;whiteSpace=wrap;html=1;fontSize=15;" parent="S3mO7Do9f3GU9gXsoDuW-5" vertex="1">
          <mxGeometry x="50" y="320" width="240" height="70" as="geometry" />
        </mxCell>
        <mxCell id="KcUCTCtHIfSHtzjtW73W-14" value="Rechercher un formateur sur les meilleurs pratiques agricoles" style="ellipse;whiteSpace=wrap;html=1;fontSize=15;" parent="S3mO7Do9f3GU9gXsoDuW-5" vertex="1">
          <mxGeometry x="410" y="230" width="280" height="70" as="geometry" />
        </mxCell>
        <mxCell id="KcUCTCtHIfSHtzjtW73W-20" value="Acheter un produit" style="ellipse;whiteSpace=wrap;html=1;fontSize=15;" parent="S3mO7Do9f3GU9gXsoDuW-5" vertex="1">
          <mxGeometry x="110" y="640" width="230" height="60" as="geometry" />
        </mxCell>
        <mxCell id="KcUCTCtHIfSHtzjtW73W-23" value="&amp;lt;&amp;lt;extend&amp;gt;&amp;gt;" style="html=1;verticalAlign=bottom;labelBackgroundColor=none;endArrow=open;endFill=0;dashed=1;rounded=0;exitX=0.112;exitY=0.823;exitDx=0;exitDy=0;entryX=0.914;entryY=0.208;entryDx=0;entryDy=0;entryPerimeter=0;exitPerimeter=0;" parent="S3mO7Do9f3GU9gXsoDuW-5" source="KcUCTCtHIfSHtzjtW73W-14" target="S3mO7Do9f3GU9gXsoDuW-9" edge="1">
          <mxGeometry width="160" relative="1" as="geometry">
            <mxPoint x="140" y="320" as="sourcePoint" />
            <mxPoint x="300" y="320" as="targetPoint" />
          </mxGeometry>
        </mxCell>
        <mxCell id="KcUCTCtHIfSHtzjtW73W-30" value="Assurrer la transactions" style="ellipse;whiteSpace=wrap;html=1;fontSize=15;" parent="S3mO7Do9f3GU9gXsoDuW-5" vertex="1">
          <mxGeometry x="450" y="570" width="230" height="60" as="geometry" />
        </mxCell>
        <mxCell id="KcUCTCtHIfSHtzjtW73W-33" value="Assurer la livraison" style="ellipse;whiteSpace=wrap;html=1;fontSize=15;" parent="S3mO7Do9f3GU9gXsoDuW-5" vertex="1">
          <mxGeometry x="490" y="340.5" width="230" height="60" as="geometry" />
        </mxCell>
        <mxCell id="KcUCTCtHIfSHtzjtW73W-35" value="&amp;lt;&amp;lt;include&amp;gt;&amp;gt;" style="html=1;verticalAlign=bottom;labelBackgroundColor=none;endArrow=open;endFill=0;dashed=1;rounded=0;exitX=1.001;exitY=0.359;exitDx=0;exitDy=0;entryX=0.101;entryY=0.857;entryDx=0;entryDy=0;entryPerimeter=0;exitPerimeter=0;" parent="S3mO7Do9f3GU9gXsoDuW-5" source="KcUCTCtHIfSHtzjtW73W-20" target="KcUCTCtHIfSHtzjtW73W-30" edge="1">
          <mxGeometry width="160" relative="1" as="geometry">
            <mxPoint x="240" y="450" as="sourcePoint" />
            <mxPoint x="400" y="450" as="targetPoint" />
          </mxGeometry>
        </mxCell>
        <mxCell id="KcUCTCtHIfSHtzjtW73W-37" value="&amp;lt;&amp;lt;include&amp;gt;&amp;gt;" style="html=1;verticalAlign=bottom;labelBackgroundColor=none;endArrow=open;endFill=0;dashed=1;rounded=0;exitX=0.981;exitY=0.667;exitDx=0;exitDy=0;exitPerimeter=0;entryX=0.201;entryY=0.078;entryDx=0;entryDy=0;entryPerimeter=0;" parent="S3mO7Do9f3GU9gXsoDuW-5" source="S3mO7Do9f3GU9gXsoDuW-4" target="KcUCTCtHIfSHtzjtW73W-30" edge="1">
          <mxGeometry width="160" relative="1" as="geometry">
            <mxPoint x="360" y="559" as="sourcePoint" />
            <mxPoint x="478" y="200" as="targetPoint" />
          </mxGeometry>
        </mxCell>
        <mxCell id="KcUCTCtHIfSHtzjtW73W-38" value="&amp;lt;&amp;lt;extend&amp;gt;&amp;gt;" style="html=1;verticalAlign=bottom;labelBackgroundColor=none;endArrow=open;endFill=0;dashed=1;rounded=0;exitX=0.452;exitY=0.981;exitDx=0;exitDy=0;entryX=0.744;entryY=0.074;entryDx=0;entryDy=0;entryPerimeter=0;exitPerimeter=0;" parent="S3mO7Do9f3GU9gXsoDuW-5" source="KcUCTCtHIfSHtzjtW73W-33" target="KcUCTCtHIfSHtzjtW73W-20" edge="1">
          <mxGeometry width="160" relative="1" as="geometry">
            <mxPoint x="670" y="560" as="sourcePoint" />
            <mxPoint x="530" y="510" as="targetPoint" />
          </mxGeometry>
        </mxCell>
        <mxCell id="KcUCTCtHIfSHtzjtW73W-39" value="&amp;lt;&amp;lt;extend&amp;gt;&amp;gt;" style="html=1;verticalAlign=bottom;labelBackgroundColor=none;endArrow=open;endFill=0;dashed=1;rounded=0;exitX=0.02;exitY=0.649;exitDx=0;exitDy=0;entryX=0.991;entryY=0.458;entryDx=0;entryDy=0;exitPerimeter=0;entryPerimeter=0;" parent="S3mO7Do9f3GU9gXsoDuW-5" source="KcUCTCtHIfSHtzjtW73W-33" target="S3mO7Do9f3GU9gXsoDuW-4" edge="1">
          <mxGeometry width="160" relative="1" as="geometry">
            <mxPoint x="500" y="360" as="sourcePoint" />
            <mxPoint x="360" y="310" as="targetPoint" />
          </mxGeometry>
        </mxCell>
        <mxCell id="KcUCTCtHIfSHtzjtW73W-46" value="Se connecter" style="ellipse;whiteSpace=wrap;html=1;fontSize=15;" parent="S3mO7Do9f3GU9gXsoDuW-5" vertex="1">
          <mxGeometry x="59" y="70" width="230" height="60" as="geometry" />
        </mxCell>
        <mxCell id="KcUCTCtHIfSHtzjtW73W-48" value="Créer un compte" style="ellipse;whiteSpace=wrap;html=1;fontSize=15;" parent="S3mO7Do9f3GU9gXsoDuW-5" vertex="1">
          <mxGeometry x="380" y="20" width="230" height="60" as="geometry" />
        </mxCell>
        <mxCell id="KcUCTCtHIfSHtzjtW73W-49" value="&amp;lt;&amp;lt;extend&amp;gt;&amp;gt;" style="html=1;verticalAlign=bottom;labelBackgroundColor=none;endArrow=open;endFill=0;dashed=1;rounded=0;exitX=0;exitY=0.5;exitDx=0;exitDy=0;entryX=1;entryY=0.5;entryDx=0;entryDy=0;" parent="S3mO7Do9f3GU9gXsoDuW-5" source="KcUCTCtHIfSHtzjtW73W-48" target="KcUCTCtHIfSHtzjtW73W-46" edge="1">
          <mxGeometry width="160" relative="1" as="geometry">
            <mxPoint x="532" y="100" as="sourcePoint" />
            <mxPoint x="360" y="147" as="targetPoint" />
          </mxGeometry>
        </mxCell>
        <mxCell id="KcUCTCtHIfSHtzjtW73W-50" value="Visiter le menu d&#39;aide" style="ellipse;whiteSpace=wrap;html=1;fontSize=15;" parent="S3mO7Do9f3GU9gXsoDuW-5" vertex="1">
          <mxGeometry x="400" y="140" width="150" height="50" as="geometry" />
        </mxCell>
        <mxCell id="KcUCTCtHIfSHtzjtW73W-51" value="confidentialité" style="ellipse;whiteSpace=wrap;html=1;fontSize=15;" parent="S3mO7Do9f3GU9gXsoDuW-5" vertex="1">
          <mxGeometry x="560" y="130" width="150" height="50" as="geometry" />
        </mxCell>
        <mxCell id="KcUCTCtHIfSHtzjtW73W-52" value="&amp;lt;&amp;lt;include&amp;gt;&amp;gt;" style="html=1;verticalAlign=bottom;labelBackgroundColor=none;endArrow=open;endFill=0;dashed=1;rounded=0;exitX=0.293;exitY=0.943;exitDx=0;exitDy=0;exitPerimeter=0;entryX=0.531;entryY=0.048;entryDx=0;entryDy=0;entryPerimeter=0;" parent="S3mO7Do9f3GU9gXsoDuW-5" source="KcUCTCtHIfSHtzjtW73W-48" target="KcUCTCtHIfSHtzjtW73W-50" edge="1">
          <mxGeometry width="160" relative="1" as="geometry">
            <mxPoint x="410" y="100" as="sourcePoint" />
            <mxPoint x="650" y="215" as="targetPoint" />
          </mxGeometry>
        </mxCell>
        <mxCell id="KcUCTCtHIfSHtzjtW73W-53" value="&amp;lt;&amp;lt;include&amp;gt;&amp;gt;" style="html=1;verticalAlign=bottom;labelBackgroundColor=none;endArrow=open;endFill=0;dashed=1;rounded=0;exitX=0.733;exitY=0.108;exitDx=0;exitDy=0;exitPerimeter=0;entryX=0.451;entryY=0.042;entryDx=0;entryDy=0;entryPerimeter=0;" parent="S3mO7Do9f3GU9gXsoDuW-5" source="S3mO7Do9f3GU9gXsoDuW-5" target="KcUCTCtHIfSHtzjtW73W-51" edge="1">
          <mxGeometry width="160" relative="1" as="geometry">
            <mxPoint x="660" y="110" as="sourcePoint" />
            <mxPoint x="900" y="225" as="targetPoint" />
          </mxGeometry>
        </mxCell>
        <mxCell id="KcUCTCtHIfSHtzjtW73W-41" value="" style="edgeStyle=orthogonalEdgeStyle;rounded=0;orthogonalLoop=1;jettySize=auto;html=1;endArrow=block;endFill=0;" parent="nirZJut8OifijuhOviz1-1" source="S3mO7Do9f3GU9gXsoDuW-6" target="KcUCTCtHIfSHtzjtW73W-1" edge="1">
          <mxGeometry relative="1" as="geometry">
            <Array as="points">
              <mxPoint x="135" y="310" />
              <mxPoint x="70" y="310" />
            </Array>
          </mxGeometry>
        </mxCell>
        <mxCell id="S3mO7Do9f3GU9gXsoDuW-6" value="Trésorier" style="shape=umlActor;verticalLabelPosition=bottom;verticalAlign=top;html=1;" parent="nirZJut8OifijuhOviz1-1" vertex="1">
          <mxGeometry x="122" y="370" width="30" height="60" as="geometry" />
        </mxCell>
        <mxCell id="S3mO7Do9f3GU9gXsoDuW-7" value="Clients" style="shape=umlActor;verticalLabelPosition=bottom;verticalAlign=top;html=1;" parent="nirZJut8OifijuhOviz1-1" vertex="1">
          <mxGeometry x="55" y="630" width="30" height="60" as="geometry" />
        </mxCell>
        <mxCell id="S3mO7Do9f3GU9gXsoDuW-8" value="Opérateur de téléphonie" style="shape=umlActor;verticalLabelPosition=bottom;verticalAlign=top;html=1;" parent="nirZJut8OifijuhOviz1-1" vertex="1">
          <mxGeometry x="1055" y="530" width="30" height="60" as="geometry" />
        </mxCell>
        <mxCell id="KcUCTCtHIfSHtzjtW73W-1" value="Membre de la coopérative" style="shape=umlActor;verticalLabelPosition=bottom;verticalAlign=top;html=1;" parent="nirZJut8OifijuhOviz1-1" vertex="1">
          <mxGeometry x="55" y="190" width="30" height="60" as="geometry" />
        </mxCell>
        <mxCell id="KcUCTCtHIfSHtzjtW73W-6" value="" style="endArrow=none;startArrow=none;endFill=0;startFill=0;endSize=8;html=1;verticalAlign=bottom;labelBackgroundColor=none;strokeWidth=1;rounded=0;entryX=0;entryY=0.5;entryDx=0;entryDy=0;" parent="nirZJut8OifijuhOviz1-1" source="KcUCTCtHIfSHtzjtW73W-43" target="S3mO7Do9f3GU9gXsoDuW-1" edge="1">
          <mxGeometry width="160" relative="1" as="geometry">
            <mxPoint x="295" y="340" as="sourcePoint" />
            <mxPoint x="455" y="340" as="targetPoint" />
          </mxGeometry>
        </mxCell>
        <mxCell id="KcUCTCtHIfSHtzjtW73W-9" value="" style="endArrow=none;startArrow=none;endFill=0;startFill=0;endSize=8;html=1;verticalAlign=bottom;labelBackgroundColor=none;strokeWidth=1;rounded=0;entryX=0.003;entryY=0.59;entryDx=0;entryDy=0;entryPerimeter=0;" parent="nirZJut8OifijuhOviz1-1" source="KcUCTCtHIfSHtzjtW73W-1" target="S3mO7Do9f3GU9gXsoDuW-2" edge="1">
          <mxGeometry width="160" relative="1" as="geometry">
            <mxPoint x="225" y="350" as="sourcePoint" />
            <mxPoint x="335" y="280" as="targetPoint" />
          </mxGeometry>
        </mxCell>
        <mxCell id="KcUCTCtHIfSHtzjtW73W-10" value="" style="endArrow=none;startArrow=none;endFill=0;startFill=0;endSize=8;html=1;verticalAlign=bottom;labelBackgroundColor=none;strokeWidth=1;rounded=0;entryX=0.002;entryY=0.544;entryDx=0;entryDy=0;entryPerimeter=0;" parent="nirZJut8OifijuhOviz1-1" source="KcUCTCtHIfSHtzjtW73W-1" target="S3mO7Do9f3GU9gXsoDuW-3" edge="1">
          <mxGeometry width="160" relative="1" as="geometry">
            <mxPoint x="95" y="340" as="sourcePoint" />
            <mxPoint x="335" y="360" as="targetPoint" />
          </mxGeometry>
        </mxCell>
        <mxCell id="KcUCTCtHIfSHtzjtW73W-11" value="" style="endArrow=none;startArrow=none;endFill=0;startFill=0;endSize=8;html=1;verticalAlign=bottom;labelBackgroundColor=none;strokeWidth=1;rounded=0;entryX=0;entryY=0.5;entryDx=0;entryDy=0;" parent="nirZJut8OifijuhOviz1-1" source="S3mO7Do9f3GU9gXsoDuW-6" target="S3mO7Do9f3GU9gXsoDuW-4" edge="1">
          <mxGeometry width="160" relative="1" as="geometry">
            <mxPoint x="185" y="280" as="sourcePoint" />
            <mxPoint x="345" y="280" as="targetPoint" />
          </mxGeometry>
        </mxCell>
        <mxCell id="KcUCTCtHIfSHtzjtW73W-12" value="" style="endArrow=none;startArrow=none;endFill=0;startFill=0;endSize=8;html=1;verticalAlign=bottom;labelBackgroundColor=none;strokeWidth=1;rounded=0;entryX=0;entryY=0.5;entryDx=0;entryDy=0;" parent="nirZJut8OifijuhOviz1-1" source="KcUCTCtHIfSHtzjtW73W-1" target="S3mO7Do9f3GU9gXsoDuW-9" edge="1">
          <mxGeometry width="160" relative="1" as="geometry">
            <mxPoint x="205" y="430" as="sourcePoint" />
            <mxPoint x="365" y="430" as="targetPoint" />
          </mxGeometry>
        </mxCell>
        <mxCell id="KcUCTCtHIfSHtzjtW73W-21" value="" style="endArrow=none;startArrow=none;endFill=0;startFill=0;endSize=8;html=1;verticalAlign=bottom;labelBackgroundColor=none;strokeWidth=1;rounded=0;entryX=0.003;entryY=0.381;entryDx=0;entryDy=0;entryPerimeter=0;" parent="nirZJut8OifijuhOviz1-1" source="S3mO7Do9f3GU9gXsoDuW-7" target="KcUCTCtHIfSHtzjtW73W-20" edge="1">
          <mxGeometry width="160" relative="1" as="geometry">
            <mxPoint x="125" y="640" as="sourcePoint" />
            <mxPoint x="360" y="762" as="targetPoint" />
          </mxGeometry>
        </mxCell>
        <mxCell id="KcUCTCtHIfSHtzjtW73W-27" value="&lt;ul&gt;&lt;span style=&quot;background-color: transparent; color: light-dark(rgb(0, 0, 0), rgb(255, 255, 255));&quot;&gt;Prestataires de services livraisons&lt;/span&gt;&lt;/ul&gt;" style="shape=umlActor;verticalLabelPosition=bottom;verticalAlign=top;html=1;" parent="nirZJut8OifijuhOviz1-1" vertex="1">
          <mxGeometry x="1055" y="310" width="30" height="60" as="geometry" />
        </mxCell>
        <mxCell id="KcUCTCtHIfSHtzjtW73W-31" value="" style="endArrow=none;startArrow=none;endFill=0;startFill=0;endSize=8;html=1;verticalAlign=bottom;labelBackgroundColor=none;strokeWidth=1;rounded=0;exitX=0.983;exitY=0.381;exitDx=0;exitDy=0;exitPerimeter=0;" parent="nirZJut8OifijuhOviz1-1" source="KcUCTCtHIfSHtzjtW73W-30" target="S3mO7Do9f3GU9gXsoDuW-8" edge="1">
          <mxGeometry width="160" relative="1" as="geometry">
            <mxPoint x="935" y="260" as="sourcePoint" />
            <mxPoint x="1190" y="317" as="targetPoint" />
          </mxGeometry>
        </mxCell>
        <mxCell id="KcUCTCtHIfSHtzjtW73W-34" value="" style="endArrow=none;startArrow=none;endFill=0;startFill=0;endSize=8;html=1;verticalAlign=bottom;labelBackgroundColor=none;strokeWidth=1;rounded=0;exitX=0.978;exitY=0.358;exitDx=0;exitDy=0;exitPerimeter=0;" parent="nirZJut8OifijuhOviz1-1" source="KcUCTCtHIfSHtzjtW73W-33" target="KcUCTCtHIfSHtzjtW73W-27" edge="1">
          <mxGeometry width="160" relative="1" as="geometry">
            <mxPoint x="915" y="458" as="sourcePoint" />
            <mxPoint x="1149" y="450" as="targetPoint" />
          </mxGeometry>
        </mxCell>
        <mxCell id="KcUCTCtHIfSHtzjtW73W-40" value="" style="endArrow=none;startArrow=none;endFill=0;startFill=0;endSize=8;html=1;verticalAlign=bottom;labelBackgroundColor=none;strokeWidth=1;rounded=0;entryX=0;entryY=0.5;entryDx=0;entryDy=0;" parent="nirZJut8OifijuhOviz1-1" source="KcUCTCtHIfSHtzjtW73W-1" target="KcUCTCtHIfSHtzjtW73W-33" edge="1">
          <mxGeometry width="160" relative="1" as="geometry">
            <mxPoint x="115" y="500" as="sourcePoint" />
            <mxPoint x="355" y="660" as="targetPoint" />
          </mxGeometry>
        </mxCell>
        <mxCell id="KcUCTCtHIfSHtzjtW73W-44" value="" style="edgeStyle=orthogonalEdgeStyle;rounded=0;orthogonalLoop=1;jettySize=auto;html=1;endArrow=none;endFill=0;" parent="nirZJut8OifijuhOviz1-1" source="KcUCTCtHIfSHtzjtW73W-43" edge="1">
          <mxGeometry relative="1" as="geometry">
            <mxPoint x="70" y="260" as="targetPoint" />
            <Array as="points">
              <mxPoint x="15" y="310" />
              <mxPoint x="70" y="310" />
            </Array>
          </mxGeometry>
        </mxCell>
        <mxCell id="KcUCTCtHIfSHtzjtW73W-43" value="Président de la coopérative" style="shape=umlActor;verticalLabelPosition=bottom;verticalAlign=top;html=1;" parent="nirZJut8OifijuhOviz1-1" vertex="1">
          <mxGeometry y="370" width="30" height="60" as="geometry" />
        </mxCell>
        <mxCell id="KcUCTCtHIfSHtzjtW73W-47" value="" style="endArrow=none;startArrow=none;endFill=0;startFill=0;endSize=8;html=1;verticalAlign=bottom;labelBackgroundColor=none;strokeWidth=1;rounded=0;entryX=0.034;entryY=0.663;entryDx=0;entryDy=0;entryPerimeter=0;exitX=1;exitY=0.3333333333333333;exitDx=0;exitDy=0;exitPerimeter=0;" parent="nirZJut8OifijuhOviz1-1" source="KcUCTCtHIfSHtzjtW73W-1" target="KcUCTCtHIfSHtzjtW73W-46" edge="1">
          <mxGeometry width="160" relative="1" as="geometry">
            <mxPoint x="235" y="125" as="sourcePoint" />
            <mxPoint x="465" y="120" as="targetPoint" />
          </mxGeometry>
        </mxCell>
      </root>
    </mxGraphModel>
  </diagram>
</mxfile>
